<?xml version="1.0" encoding="UTF-8" standalone="no"?>
<!-- Created with Inkscape (http://www.inkscape.org/) -->

<svg
   xmlns:dc="http://purl.org/dc/elements/1.1/"
   xmlns:cc="http://creativecommons.org/ns#"
   xmlns:rdf="http://www.w3.org/1999/02/22-rdf-syntax-ns#"
   xmlns:svg="http://www.w3.org/2000/svg"
   xmlns="http://www.w3.org/2000/svg"
   xmlns:sodipodi="http://sodipodi.sourceforge.net/DTD/sodipodi-0.dtd"
   xmlns:inkscape="http://www.inkscape.org/namespaces/inkscape"
   width="210mm"
   height="297mm"
   viewBox="0 0 744.09448819 1052.3622047"
   id="svg2"
   version="1.1"
   inkscape:version="0.91 r13725"
   sodipodi:docname="badCannon.svg">
  <defs
     id="defs4" />
  <sodipodi:namedview
     id="base"
     pagecolor="#ffffff"
     bordercolor="#666666"
     borderopacity="1.0"
     inkscape:pageopacity="0.0"
     inkscape:pageshadow="2"
     inkscape:zoom="1.979899"
     inkscape:cx="247.96485"
     inkscape:cy="899.79679"
     inkscape:document-units="px"
     inkscape:current-layer="layer1"
     showgrid="false"
     inkscape:window-width="1362"
     inkscape:window-height="729"
     inkscape:window-x="0"
     inkscape:window-y="18"
     inkscape:window-maximized="0" />
  <metadata
     id="metadata7">
    <rdf:RDF>
      <cc:Work
         rdf:about="">
        <dc:format>image/svg+xml</dc:format>
        <dc:type
           rdf:resource="http://purl.org/dc/dcmitype/StillImage" />
        <dc:title></dc:title>
      </cc:Work>
    </rdf:RDF>
  </metadata>
  <g
     inkscape:label="Layer 1"
     inkscape:groupmode="layer"
     id="layer1">
    <circle
       style="fill:#aa4400;stroke:#000000;stroke-width:5;stroke-miterlimit:4;stroke-dasharray:none"
       id="path3338"
       cx="245.38252"
       cy="249.17329"
       r="88.916931" />
    <path
       transform="matrix(0.80945523,0.5871816,-0.5871816,0.80945523,0,0)"
       style="fill:#808080;stroke:#000000;stroke-width:5;stroke-miterlimit:4;stroke-dasharray:none"
       d="M 388.75429,50.82655 A 41.147171,36.870567 0 0 1 347.60712,87.697117 41.147171,36.870567 0 0 1 306.45995,50.82655 41.147171,36.870567 0 0 1 347.60712,13.955982 41.147171,36.870567 0 0 1 388.75429,50.82655 Z"
       id="path4158-9" />
    <path
       transform="matrix(0.86680339,0.49865006,-0.50901788,0.86075594,0,0)"
       style="fill:#808080;stroke:#000000;stroke-width:5.13479233;stroke-miterlimit:4;stroke-dasharray:none"
       d="m 300.2185,85.778644 0.65429,-116.954917 80.67068,0 1.066,118.892209"
       id="rect4185"
       inkscape:connector-curvature="0"
       sodipodi:nodetypes="cccc" />
    <path
       style="fill:#808080;stroke:#000000;stroke-width:5;stroke-miterlimit:4;stroke-dasharray:none"
       d="m 277.8202,121.08436 c 11.95681,-16.48298 36.56168,-19.0279 54.95652,-5.68422 18.39484,13.34368 23.61388,37.52296 11.65707,54.00594 -11.95681,16.48298 -36.56168,19.02788 -54.95651,5.68421 -18.39483,-13.34367 -23.61388,-37.52296 -11.65708,-54.00593"
       id="path4158"
       inkscape:connector-curvature="0"
       sodipodi:nodetypes="csssc" />
  </g>
</svg>
